REM DIRINDEX 1\2\6,1\2\7,1\2\8,1\2\9,1\3\10,1\3\11,1\4\12,1\4\13,1\4\14,1\5\15,1\5\16,1\5\17
REM DIRNAME cjc020,folder01,folder02,folder03,folder04,folder05,folder06,folder07,folder08,folder09,folder10,folder11,folder12,folder13,folder14,folder15,folder16
TITLE ""
FILE "1900_3_075 sec13_1235_1252.mp3" MP3
  TRACK 01 AUDIO
    TITLE "0:"
    INDEX 01 00:00:00
  TRACK 02 AUDIO
    TITLE "17:cjc020_8449"
    INDEX 01 00:00:13
  TRACK 03 AUDIO
    TITLE "0:"
    INDEX 01 00:01:38
  TRACK 04 AUDIO
    TITLE "16:cjc020_8450"
    INDEX 01 00:01:42
  TRACK 05 AUDIO
    TITLE "0:"
    INDEX 01 00:02:55
  TRACK 06 AUDIO
    TITLE "17:cjc020_8451"
    INDEX 01 00:03:39
  TRACK 07 AUDIO
    TITLE "0:"
    INDEX 01 00:04:54
  TRACK 08 AUDIO
    TITLE "16:cjc020_8452"
    INDEX 01 00:04:62
  TRACK 09 AUDIO
    TITLE "0:"
    INDEX 01 00:06:00
  TRACK 10 AUDIO
    TITLE "17:cjc020_8453"
    INDEX 01 00:06:57
  TRACK 11 AUDIO
    TITLE "0:"
    INDEX 01 00:08:15
  TRACK 12 AUDIO
    TITLE "16:cjc020_8454"
    INDEX 01 00:08:17
  TRACK 13 AUDIO
    TITLE "0:"
    INDEX 01 00:09:24
  TRACK 14 AUDIO
    TITLE "17:cjc020_8455"
    INDEX 01 00:10:10
  TRACK 15 AUDIO
    TITLE "0:"
    INDEX 01 00:11:15
  TRACK 16 AUDIO
    TITLE "16:cjc020_8456"
    INDEX 01 00:11:19
  TRACK 17 AUDIO
    TITLE "0:"
    INDEX 01 00:12:42
  TRACK 18 AUDIO
    TITLE "17:cjc020_8457"
    INDEX 01 00:13:26
  TRACK 19 AUDIO
    TITLE "0:"
    INDEX 01 00:14:56
  TRACK 20 AUDIO
    TITLE "16:cjc020_8458"
    INDEX 01 00:14:62
  TRACK 21 AUDIO
    TITLE "0:"
    INDEX 01 00:15:72
  TRACK 22 AUDIO
    TITLE "17:cjc020_8459"
    INDEX 01 00:16:55
  TRACK 23 AUDIO
    TITLE "0:"
    INDEX 01 00:19:22
  TRACK 24 AUDIO
    TITLE "16:cjc020_8460"
    INDEX 01 00:19:28
  TRACK 25 AUDIO
    TITLE "0:"
    INDEX 01 00:20:45
  TRACK 26 AUDIO
    TITLE "17:cjc020_8461"
    INDEX 01 00:21:27
  TRACK 27 AUDIO
    TITLE "0:"
    INDEX 01 00:22:42
  TRACK 28 AUDIO
    TITLE "16:cjc020_8462"
    INDEX 01 00:22:46
  TRACK 29 AUDIO
    TITLE "0:"
    INDEX 01 00:23:48
  TRACK 30 AUDIO
    TITLE "17:cjc020_8463"
    INDEX 01 00:24:33
  TRACK 31 AUDIO
    TITLE "0:"
    INDEX 01 00:26:30
  TRACK 32 AUDIO
    TITLE "16:cjc020_8464"
    INDEX 01 00:26:38
  TRACK 33 AUDIO
    TITLE "0:"
    INDEX 01 00:27:36
  TRACK 34 AUDIO
    TITLE "17:cjc020_8465"
    INDEX 01 00:28:21
  TRACK 35 AUDIO
    TITLE "0:"
    INDEX 01 00:29:38
  TRACK 36 AUDIO
    TITLE "16:cjc020_8466"
    INDEX 01 00:29:40
  TRACK 37 AUDIO
    TITLE "0:"
    INDEX 01 00:30:42
  TRACK 38 AUDIO
    TITLE "17:cjc020_8467"
    INDEX 01 00:31:26
  TRACK 39 AUDIO
    TITLE "0:"
    INDEX 01 00:32:39
  TRACK 40 AUDIO
    TITLE "16:cjc020_8468"
    INDEX 01 00:32:45
  TRACK 41 AUDIO
    TITLE "0:"
    INDEX 01 00:33:48
  TRACK 42 AUDIO
    TITLE "17:cjc020_8469"
    INDEX 01 00:34:34
  TRACK 43 AUDIO
    TITLE "0:"
    INDEX 01 00:35:37
  TRACK 44 AUDIO
    TITLE "16:cjc020_8470"
    INDEX 01 00:35:43
  TRACK 45 AUDIO
    TITLE "0:"
    INDEX 01 00:36:44
  TRACK 46 AUDIO
    TITLE "17:cjc020_8471"
    INDEX 01 00:37:28
  TRACK 47 AUDIO
    TITLE "0:"
    INDEX 01 00:38:45
  TRACK 48 AUDIO
    TITLE "16:cjc020_8472"
    INDEX 01 00:38:53
  TRACK 49 AUDIO
    TITLE "0:"
    INDEX 01 00:39:51
  TRACK 50 AUDIO
    TITLE "17:cjc020_8473"
    INDEX 01 00:40:34
  TRACK 51 AUDIO
    TITLE "0:"
    INDEX 01 00:41:51
  TRACK 52 AUDIO
    TITLE "16:cjc020_8474"
    INDEX 01 00:41:59
  TRACK 53 AUDIO
    TITLE "0:"
    INDEX 01 00:42:61
  TRACK 54 AUDIO
    TITLE "17:cjc020_8475"
    INDEX 01 00:43:46
  TRACK 55 AUDIO
    TITLE "0:"
    INDEX 01 00:46:27
  TRACK 56 AUDIO
    TITLE "16:cjc020_8476"
    INDEX 01 00:46:35
  TRACK 57 AUDIO
    TITLE "0:"
    INDEX 01 00:47:46
  TRACK 58 AUDIO
    TITLE "17:cjc020_8477"
    INDEX 01 00:48:28
  TRACK 59 AUDIO
    TITLE "0:"
    INDEX 01 00:49:33
  TRACK 60 AUDIO
    TITLE "16:cjc020_8478"
    INDEX 01 00:49:41
  TRACK 61 AUDIO
    TITLE "0:"
    INDEX 01 00:50:46
  TRACK 62 AUDIO
    TITLE "17:cjc020_8479"
    INDEX 01 00:51:28
  TRACK 63 AUDIO
    TITLE "0:"
    INDEX 01 00:52:24
  TRACK 64 AUDIO
    TITLE "16:cjc020_8480"
    INDEX 01 00:52:32
  TRACK 65 AUDIO
    TITLE "0:"
    INDEX 01 00:53:35
  TRACK 66 AUDIO
    TITLE "17:cjc020_8481"
    INDEX 01 00:54:17
  TRACK 67 AUDIO
    TITLE "0:"
    INDEX 01 00:56:02
  TRACK 68 AUDIO
    TITLE "16:cjc020_8482"
    INDEX 01 00:56:04
  TRACK 69 AUDIO
    TITLE "0:"
    INDEX 01 00:57:13
  TRACK 70 AUDIO
    TITLE "17:cjc020_8483"
    INDEX 01 00:57:68
  TRACK 71 AUDIO
    TITLE "0:"
    INDEX 01 00:58:69
  TRACK 72 AUDIO
    TITLE "16:cjc020_8484"
    INDEX 01 00:59:02
  TRACK 73 AUDIO
    TITLE "0:"
    INDEX 01 01:00:17
